<?xml version="1.0" encoding="UTF-8"?>
<svg version="1.1" xmlns="http://www.w3.org/2000/svg" width="400" height="400">
<path d="M0 0 C132 0 264 0 400 0 C400 132 400 264 400 400 C268 400 136 400 0 400 C0 268 0 136 0 0 Z " fill="#FEFEFE" transform="translate(0,0)"/>
<path d="M0 0 C0 34.32 0 68.64 0 104 C-6.75045324 102.87492446 -6.75045324 102.87492446 -10.11499023 101.60473633 C-10.86695175 101.32386673 -11.61891327 101.04299713 -12.3936615 100.75361633 C-13.19058914 100.44949326 -13.98751678 100.14537018 -14.80859375 99.83203125 C-15.65237076 99.51473557 -16.49614777 99.19743988 -17.36549377 98.87052917 C-19.15079675 98.19806379 -20.93511642 97.52298278 -22.71850586 96.84545898 C-25.39561518 95.82841225 -28.07539644 94.81871731 -30.75585938 93.81054688 C-38.4434265 90.91181262 -46.10940543 87.97573056 -53.72265625 84.88671875 C-59.58104042 82.52255857 -65.48966218 80.38004063 -71.45385742 78.30407715 C-79.71579489 75.42093236 -87.88582196 72.30251665 -96.0625 69.1875 C-98.48944535 68.26549998 -100.91666819 67.34423325 -103.34391785 66.42303467 C-104.94882606 65.81391199 -106.55365494 65.2045802 -108.15840149 64.59503174 C-115.20290415 61.9199679 -122.25563915 59.26730736 -129.3125 56.625 C-130.3135376 56.25012451 -131.3145752 55.87524902 -132.34594727 55.48901367 C-134.56378197 54.65885206 -136.78177284 53.82911225 -139 53 C-139 52.34 -139 51.68 -139 51 C-138.3264296 50.75107498 -137.65285919 50.50214996 -136.95887756 50.24568176 C-119.43605489 43.76790318 -101.92947372 37.24818032 -84.4375 30.6875 C-82.62253525 30.00708649 -82.62253525 30.00708649 -80.77090454 29.31292725 C-66.05866907 23.79630776 -51.35724286 18.25368244 -36.6875 12.625 C-18.44566479 5.63003918 -18.44566479 5.63003918 -10.5625 2.6875 C-9.4336438 2.26041748 -9.4336438 2.26041748 -8.28198242 1.82470703 C-5.37079881 0.74742541 -3.13227642 0 0 0 Z " fill="#020202" transform="translate(270,132)"/>
<path d="M0 0 C0 19.14 0 38.28 0 58 C-4.27378513 57.28770248 -7.46105968 56.6136209 -11.41259766 55.16162109 C-12.44873199 54.78387543 -13.48486633 54.40612976 -14.55239868 54.01693726 C-16.21642227 53.40140488 -16.21642227 53.40140488 -17.9140625 52.7734375 C-19.07892181 52.34753326 -20.24378113 51.92162903 -21.44393921 51.4828186 C-24.54470831 50.34827856 -27.64383367 49.20939664 -30.74212646 48.06811523 C-36.23440301 46.04632223 -41.73082378 44.03579499 -47.2265625 42.0234375 C-48.40301331 41.59214539 -49.57946411 41.16085327 -50.79156494 40.7164917 C-60.82689686 37.04491778 -70.89970475 33.48844952 -81 30 C-81 29.34 -81 28.68 -81 28 C-80.46527069 27.81144943 -79.93054138 27.62289886 -79.37960815 27.42863464 C-72.5437418 25.01774244 -65.70917305 22.60318759 -58.875 20.1875 C-57.78587311 19.80272491 -56.69674622 19.41794983 -55.57461548 19.02151489 C-39.37899683 13.29792492 -39.37899683 13.29792492 -23.23828125 7.421875 C-22.53058594 7.16050247 -21.82289063 6.89912994 -21.09375 6.62983704 C-17.89174577 5.44486978 -14.69322106 4.25158126 -11.49755859 3.04956055 C-10.39879395 2.6400415 -9.3000293 2.23052246 -8.16796875 1.80859375 C-7.23235107 1.45595459 -6.2967334 1.10331543 -5.33276367 0.73999023 C-3 0 -3 0 0 0 Z " fill="#F9F9F9" transform="translate(255,155)"/>
<path d="M0 0 C46.2 0 92.4 0 140 0 C140 5.28 140 10.56 140 16 C93.8 16 47.6 16 0 16 C0 10.72 0 5.44 0 0 Z " fill="#070707" transform="translate(130,252)"/>
</svg>
